<svg width="924" height="172" viewBox="0 0 924 172" fill="none" xmlns="http://www.w3.org/2000/svg">
<path d="M911.606 137.377V134.82H913.216C914.068 134.82 915.299 134.914 915.299 135.956C915.299 136.998 914.636 137.377 913.595 137.377H911.606ZM911.606 139.176H912.742L915.299 143.627H918.046L915.205 138.987C916.625 139.081 917.762 138.04 917.856 136.619V136.24C917.856 133.778 916.152 133.02 913.311 133.02H909.238V143.627H911.606V139.176ZM923.539 138.324C923.539 132.073 918.709 128.475 913.311 128.475C907.912 128.475 903.082 132.073 903.082 138.324C903.082 144.574 907.912 148.173 913.311 148.173C918.709 148.173 923.539 144.574 923.539 138.324ZM920.508 138.324C920.697 142.301 917.572 145.711 913.595 145.9H913.311C909.144 146.089 905.639 142.775 905.45 138.608C905.261 134.441 908.575 130.937 912.742 130.747C916.909 130.558 920.413 133.873 920.603 138.04C920.508 138.134 920.508 138.229 920.508 138.324ZM548.038 33.108V144.858H579.575V33.108H548.038ZM299.915 32.9185V144.764H331.735V57.9203L356.547 58.015C364.692 58.015 370.374 60.0038 374.257 64.1708C379.276 69.4742 381.265 78.0922 381.265 93.7183V144.764H412.139V83.0168C412.139 38.8849 384.012 32.9185 356.547 32.9185H299.915ZM598.894 33.108V144.858H650.034C677.309 144.858 686.211 140.313 695.776 130.179C702.595 123.076 706.951 107.356 706.951 90.2143C706.951 74.4935 703.258 60.4773 696.723 51.7646C685.169 36.1385 668.312 33.108 643.121 33.108H598.894ZM630.146 57.3521H643.689C663.387 57.3521 676.078 66.1595 676.078 89.0778C676.078 111.996 663.387 120.898 643.689 120.898H630.146V57.3521ZM502.581 33.108L476.253 121.656L451.062 33.108H416.968L452.956 144.858H498.414L534.78 33.108H502.581ZM721.725 144.858H753.261V33.108H721.725V144.858ZM810.178 33.108L766.141 144.764H797.204L804.212 124.971H856.299L862.928 144.669H896.737L852.321 33.108H810.178ZM830.634 53.4693L849.764 105.746H810.936L830.634 53.4693Z" fill="black"/>
<path d="M96.3964 51.6699V36.3279C97.9116 36.2332 99.4269 36.1385 100.942 36.1385C142.991 34.8126 170.549 72.3153 170.549 72.3153C170.549 72.3153 140.812 113.606 108.897 113.606C104.636 113.606 100.469 112.943 96.4911 111.617V65.0231C112.875 67.0119 116.189 74.2094 125.944 90.5931L147.82 72.2206C147.82 72.2206 131.816 51.2911 104.92 51.2911C102.079 51.1964 99.2375 51.3858 96.3964 51.6699ZM96.3964 0.908691V23.827L100.942 23.5429C159.374 21.5541 197.54 71.4629 197.54 71.4629C197.54 71.4629 153.787 124.686 108.234 124.686C104.257 124.686 100.374 124.308 96.4911 123.645V137.85C99.711 138.229 103.026 138.513 106.246 138.513C148.673 138.513 179.357 116.826 209.094 91.256C214.018 95.2336 234.19 104.799 238.357 108.966C210.136 132.642 144.316 151.677 107.003 151.677C103.404 151.677 99.9951 151.488 96.5858 151.109V171.091H257.771V0.908691L96.3964 0.908691ZM96.3964 111.617V123.739C57.189 116.731 46.2981 75.914 46.2981 75.914C46.2981 75.914 65.1442 55.0792 96.3964 51.6699V64.9284H96.3017C79.9179 62.9396 67.0382 78.2816 67.0382 78.2816C67.0382 78.2816 74.3304 104.136 96.3964 111.617ZM26.7892 74.2094C26.7892 74.2094 49.9916 39.9266 96.4911 36.3279V23.827C44.9723 27.9939 0.461533 71.5576 0.461533 71.5576C0.461533 71.5576 25.6527 144.48 96.3964 151.109V137.85C44.4988 131.41 26.7892 74.2094 26.7892 74.2094Z" fill="#76B900"/>
</svg>
