<svg width="300" height="105" viewBox="0 0 300 105" fill="none" xmlns="http://www.w3.org/2000/svg">
<g clip-path="url(#clip0_119_2)">
<mask id="mask0_119_2" style="mask-type:luminance" maskUnits="userSpaceOnUse" x="0" y="0" width="105" height="105">
<path d="M104.449 0.203125H0V104.797H104.449V0.203125Z" fill="white"/>
</mask>
<g mask="url(#mask0_119_2)">
<path d="M0 16.9381C0 11.0804 0 8.15144 1.13842 5.91405C2.13981 3.94599 3.73767 2.3459 5.703 1.34313C7.93729 0.203125 10.8621 0.203125 16.7118 0.203125H87.7369C93.5866 0.203125 96.5112 0.203125 98.7458 1.34313C100.711 2.3459 102.309 3.94599 103.31 5.91405C104.449 8.15144 104.449 11.0804 104.449 16.9381V88.0619C104.449 93.9198 104.449 96.8484 103.31 99.0861C102.309 101.054 100.711 102.654 98.7458 103.657C96.5112 104.797 93.5866 104.797 87.7369 104.797H16.7118C10.8621 104.797 7.93729 104.797 5.703 103.657C3.73767 102.654 2.13981 101.054 1.13842 99.0861C0 96.8484 0 93.9198 0 88.0619V16.9381Z" fill="#1A1A1A"/>
<path d="M24.3713 64.1216H35.9768V81.5539H24.3713V64.1216Z" fill="#CDFA50"/>
<path d="M70.7931 35.0677H82.3985V52.5H70.7931V35.0677Z" fill="#CDFA50"/>
<path d="M35.9768 52.5H70.7931V64.1216H35.9768V52.5Z" fill="#CDFA50"/>
<path d="M24.3713 23.4462H70.793V35.0677H35.9768V52.5L24.3713 52.3547V23.4462Z" fill="#CDFA50"/>
</g>
<path d="M156.375 30.8989C156.375 39.0165 151.298 43.6969 142.44 43.6969H135.523V53.6574H127.66V18.7975H142.44C151.298 18.7975 156.375 23.1802 156.375 30.8989ZM148.91 31.1478C148.91 27.264 146.421 25.3221 142.042 25.3221H135.523V37.1246H142.042C146.421 37.1246 148.91 35.1316 148.91 31.1478Z" fill="#1A1A1A"/>
<path d="M168.699 18.7975V36.2281H184.475V18.7975H192.334V53.6574H184.475V43.1992H168.699V53.6574H160.842V18.7975H168.699Z" fill="#1A1A1A"/>
<path d="M222.521 46.6853H206.557L203.74 53.6621H195.627L210.756 18.8022H218.869L233.749 53.6621H225.338L222.521 46.6853ZM219.721 39.7084L214.584 27.0151L209.405 39.713L219.721 39.7084Z" fill="#1A1A1A"/>
<path d="M288.778 46.6853H272.814L269.996 53.6621H261.884L277.013 18.8022H285.125L300 53.6621H291.589L288.778 46.6853ZM285.978 39.7084L280.846 27.0105L275.666 39.7084H285.978Z" fill="#1A1A1A"/>
<path d="M245.206 18.7975V46.7852H260.136V53.6574H237.342V18.7975H245.206Z" fill="#1A1A1A"/>
<path d="M206.218 86.0793C204.659 86.0793 203.253 85.73 202.001 85.031C200.749 84.3116 199.754 83.3151 199.016 82.0408C198.297 80.7665 197.938 79.2667 197.938 77.5403C197.938 75.7936 198.297 74.2828 199.016 73.0085C199.754 71.7348 200.749 70.7481 202.001 70.0497C203.253 69.3506 204.659 69.0014 206.218 69.0014C207.614 69.0014 208.835 69.3094 209.882 69.9259C210.929 70.5424 211.739 71.478 212.314 72.7313C212.889 73.9847 213.176 75.5879 213.176 77.5403C213.176 79.4718 212.899 81.075 212.344 82.3493C211.79 83.6027 210.99 84.5377 209.943 85.1542C208.917 85.7707 207.676 86.0793 206.218 86.0793ZM207.05 82.1332C207.83 82.1332 208.538 81.9484 209.174 81.5782C209.81 81.2087 210.313 80.6845 210.682 80.0064C211.072 79.3074 211.267 78.4858 211.267 77.5403C211.267 76.5746 211.072 75.7524 210.682 75.0742C210.313 74.3961 209.81 73.872 209.174 73.5019C208.538 73.1323 207.83 72.9469 207.05 72.9469C206.249 72.9469 205.531 73.1323 204.895 73.5019C204.259 73.872 203.746 74.3961 203.356 75.0742C202.986 75.7524 202.802 76.5746 202.802 77.5403C202.802 78.4858 202.986 79.3074 203.356 80.0064C203.746 80.6845 204.259 81.2087 204.895 81.5782C205.531 81.9484 206.249 82.1332 207.05 82.1332ZM211.39 85.8323V82.4417L211.483 77.5095L211.175 72.6082V62.9594H215.977V85.8323H211.39Z" fill="#1A1A1A"/>
<path d="M185.639 86.0793C184.264 86.0793 183.032 85.812 181.945 85.2774C180.878 84.7434 180.046 83.9316 179.452 82.8421C178.856 81.7328 178.559 80.3249 178.559 78.6194V69.2478H183.361V77.9099C183.361 79.2871 183.648 80.3045 184.223 80.9617C184.818 81.5992 185.649 81.9176 186.717 81.9176C187.455 81.9176 188.112 81.7636 188.687 81.4551C189.261 81.1262 189.713 80.6334 190.041 79.9756C190.369 79.2975 190.534 78.455 190.534 77.448V69.2478H195.336V85.8323H190.78V81.2703L191.611 82.5957C191.057 83.7468 190.236 84.6202 189.149 85.2158C188.081 85.7916 186.912 86.0793 185.639 86.0793Z" fill="#1A1A1A"/>
<path d="M167.037 86.0792C165.272 86.0792 163.702 85.7091 162.327 84.9694C160.973 84.2297 159.895 83.2227 159.095 81.9484C158.315 80.6537 157.925 79.1842 157.925 77.5403C157.925 75.8755 158.315 74.406 159.095 73.1323C159.895 71.8376 160.973 70.8306 162.327 70.1113C163.702 69.3715 165.272 69.0014 167.037 69.0014C168.782 69.0014 170.341 69.3715 171.717 70.1113C173.091 70.8306 174.169 71.8272 174.949 73.1015C175.729 74.3752 176.119 75.8552 176.119 77.5403C176.119 79.1842 175.729 80.6537 174.949 81.9484C174.169 83.2227 173.091 84.2297 171.717 84.9694C170.341 85.7091 168.782 86.0792 167.037 86.0792ZM167.037 82.1332C167.837 82.1332 168.556 81.9484 169.192 81.5788C169.828 81.2087 170.331 80.6845 170.701 80.0064C171.07 79.3074 171.255 78.4857 171.255 77.5403C171.255 76.5746 171.07 75.7524 170.701 75.0742C170.331 74.3961 169.828 73.872 169.192 73.5018C168.556 73.1323 167.837 72.9469 167.037 72.9469C166.237 72.9469 165.519 73.1323 164.883 73.5018C164.246 73.872 163.733 74.3961 163.343 75.0742C162.974 75.7524 162.789 76.5746 162.789 77.5403C162.789 78.4857 162.974 79.3074 163.343 80.0064C163.733 80.6845 164.246 81.2087 164.883 81.5788C165.519 81.9484 166.237 82.1332 167.037 82.1332Z" fill="#1A1A1A"/>
<path d="M150.575 85.8323V62.9594H155.377V85.8323H150.575Z" fill="#1A1A1A"/>
<path d="M139.326 86.2025C137.664 86.2025 136.115 85.9352 134.678 85.4012C133.262 84.8462 132.031 84.0653 130.984 83.0583C129.938 82.0512 129.117 80.8693 128.521 79.5131C127.947 78.1569 127.66 76.667 127.66 75.0435C127.66 73.4199 127.947 71.93 128.521 70.5732C129.117 69.217 129.938 68.0357 130.984 67.0287C132.052 66.0217 133.293 65.2506 134.709 64.7166C136.125 64.1616 137.674 63.8845 139.357 63.8845C141.225 63.8845 142.908 64.2128 144.406 64.8705C145.925 65.508 147.197 66.4528 148.223 67.7068L145.021 70.6662C144.283 69.8236 143.462 69.1967 142.559 68.7858C141.656 68.3541 140.671 68.1385 139.604 68.1385C138.598 68.1385 137.674 68.3024 136.833 68.6313C135.992 68.9602 135.263 69.4332 134.647 70.0497C134.032 70.6662 133.549 71.3955 133.201 72.238C132.872 73.0806 132.708 74.0155 132.708 75.0435C132.708 76.0708 132.872 77.0058 133.201 77.8483C133.549 78.6909 134.032 79.4207 134.647 80.0372C135.263 80.6538 135.992 81.1262 136.833 81.4551C137.674 81.7839 138.598 81.9484 139.604 81.9484C140.671 81.9484 141.656 81.7427 142.559 81.3319C143.462 80.9001 144.283 80.2528 145.021 79.3899L148.223 82.3493C147.197 83.6027 145.925 84.5586 144.406 85.2158C142.908 85.8736 141.215 86.2025 139.326 86.2025Z" fill="#1A1A1A"/>
</g>
<defs>
<clipPath id="clip0_119_2">
<rect width="300" height="105" fill="white"/>
</clipPath>
</defs>
</svg>
